<svg id="Layer_1" data-name="Layer 1" xmlns="http://www.w3.org/2000/svg" viewBox="0 0 102 102"><defs><style>.cls-1{fill:#24356e;}.cls-2{fill:#102447;}.cls-3{fill:none;stroke:#fff;stroke-miterlimit:10;stroke-width:3px;}.cls-4{fill:#fff;}</style></defs><title>logo vì sao lựa chọn TSG</title><path class="cls-1" d="M76.06,25.75a37.44,37.44,0,0,1-24-10.89,37.44,37.44,0,0,1-24,10.89H24l0,22.17s0,16.62,11.33,27.67S51.76,87.8,51.76,87.8s5.65-1.17,17-12.21S80.07,47.92,80.07,47.92l0-22.17Z"/><path class="cls-2" d="M76.06,25.75a37.44,37.44,0,0,1-24-10.89c-.34.34-.67.66-1,1V87.55a4.74,4.74,0,0,0,.71.25s5.65-1.17,17-12.21S80.07,47.92,80.07,47.92l0-22.17Z"/><path class="cls-3" d="M51.85,82.77c-1.92-1-6.24-3.73-13.21-10.53a29.58,29.58,0,0,1-5.58-7.63,38,38,0,0,1-3-7.91,39.53,39.53,0,0,1-1.34-8.79V30.38a42.29,42.29,0,0,0,23.35-9.23,42.26,42.26,0,0,0,23.35,9.23l0,17.53a39.69,39.69,0,0,1-1.33,8.79,38,38,0,0,1-3,7.91,29.81,29.81,0,0,1-5.58,7.63C58.43,79.11,53.87,81.8,51.85,82.77Z"/><polygon class="cls-4" points="43.22 49.08 39.75 52.96 51.61 63.57 68.6 43.74 64.64 40.35 51.12 56.14 43.22 49.08"/></svg>